<svg width="680" height="320" viewBox="0 0 680 320" xmlns="http://www.w3.org/2000/svg" font-family="Segoe UI, Arial, sans-serif">

  <defs>
    <marker id="arr" viewBox="0 0 10 10" refX="8" refY="5" markerWidth="6" markerHeight="6" orient="auto-start-reverse">
      <path d="M2 1L8 5L2 9" fill="none" stroke="#888780" stroke-width="1.5" stroke-linecap="round" stroke-linejoin="round"/>
    </marker>
    <marker id="arr2" viewBox="0 0 10 10" refX="8" refY="5" markerWidth="6" markerHeight="6" orient="auto-start-reverse">
      <path d="M2 1L8 5L2 9" fill="none" stroke="#534AB7" stroke-width="1.5" stroke-linecap="round" stroke-linejoin="round"/>
    </marker>
    <marker id="arr3" viewBox="0 0 10 10" refX="8" refY="5" markerWidth="6" markerHeight="6" orient="auto-start-reverse">
      <path d="M2 1L8 5L2 9" fill="none" stroke="#0F6E56" stroke-width="1.5" stroke-linecap="round" stroke-linejoin="round"/>
    </marker>
  </defs>

  <!-- Start -->
  <rect x="215" y="16" width="250" height="40" rx="20" fill="#F1EFE8" stroke="#888780" stroke-width="0.5"/>
  <text x="340" y="40" text-anchor="middle" font-size="14" font-weight="600" fill="#2C2C2A">Inicio del proyecto</text>
  <line x1="340" y1="56" x2="340" y2="76" stroke="#888780" stroke-width="1.5" marker-end="url(#arr)"/>

  <!-- Step 1 -->
  <rect x="140" y="76" width="400" height="52" rx="8" fill="#EEEDFE" stroke="#534AB7" stroke-width="0.5"/>
  <text x="340" y="98" text-anchor="middle" font-size="14" font-weight="600" fill="#3C3489">Análisis documental</text>
  <text x="340" y="116" text-anchor="middle" font-size="12" fill="#534AB7">Conocer el contexto y sistemas existentes</text>
  <line x1="340" y1="128" x2="340" y2="148" stroke="#534AB7" stroke-width="1.5" marker-end="url(#arr2)"/>

  <!-- Step 2 -->
  <rect x="140" y="148" width="400" height="52" rx="8" fill="#EEEDFE" stroke="#534AB7" stroke-width="0.5"/>
  <text x="340" y="170" text-anchor="middle" font-size="14" font-weight="600" fill="#3C3489">Entrevistas</text>
  <text x="340" y="188" text-anchor="middle" font-size="12" fill="#534AB7">Requerimientos con stakeholders</text>
  <line x1="340" y1="200" x2="340" y2="220" stroke="#534AB7" stroke-width="1.5" marker-end="url(#arr2)"/>

  <!-- Step 3 -->
  <rect x="140" y="220" width="400" height="52" rx="8" fill="#EEEDFE" stroke="#534AB7" stroke-width="0.5"/>
  <text x="340" y="242" text-anchor="middle" font-size="14" font-weight="600" fill="#3C3489">Encuestas y observación</text>
  <text x="340" y="260" text-anchor="middle" font-size="12" fill="#534AB7">Validar necesidades con usuarios reales</text>
  <line x1="340" y1="272" x2="340" y2="292" stroke="#0F6E56" stroke-width="1.5" marker-end="url(#arr3)"/>

  <!-- End -->
  <rect x="180" y="292" width="320" height="20" rx="10" fill="#E1F5EE" stroke="#0F6E56" stroke-width="0.5"/>
  <text x="340" y="305" text-anchor="middle" font-size="12" font-weight="600" fill="#085041">Requerimientos validados</text>

</svg>
